<svg xmlns="http://www.w3.org/2000/svg" xmlns:xlink="http://www.w3.org/1999/xlink" width="500" zoomAndPan="magnify" viewBox="0 0 375 374.999991" height="500" preserveAspectRatio="xMidYMid meet" version="1.0"><defs><filter x="0%" y="0%" width="100%" height="100%" id="id1"><feColorMatrix values="0 0 0 0 1 0 0 0 0 1 0 0 0 0 1 0 0 0 1 0" color-interpolation-filters="sRGB"/></filter><g/><mask id="id2"><g filter="url(#id1)"><rect x="-37.5" width="450" fill="#000000" y="-37.499999" height="449.999989" fill-opacity="0.4784"/></g></mask><clipPath id="id3"><path d="M 0.5625 0.34375 L 22.3125 0.34375 L 22.3125 22.09375 L 0.5625 22.09375 Z M 0.5625 0.34375 " clip-rule="nonzero"/></clipPath><clipPath id="id4"><rect x="0" width="23" y="0" height="23"/></clipPath><mask id="id5"><g filter="url(#id1)"><rect x="-37.5" width="450" fill="#000000" y="-37.499999" height="449.999989" fill-opacity="0.8"/></g></mask><clipPath id="id6"><path d="M 0.9375 0.09375 L 22.6875 0.09375 L 22.6875 21.84375 L 0.9375 21.84375 Z M 0.9375 0.09375 " clip-rule="nonzero"/></clipPath><clipPath id="id7"><rect x="0" width="23" y="0" height="22"/></clipPath><clipPath id="id8"><path d="M 73.3125 154.09375 L 95.0625 154.09375 L 95.0625 175.84375 L 73.3125 175.84375 Z M 73.3125 154.09375 " clip-rule="nonzero"/></clipPath><mask id="id9"><g filter="url(#id1)"><rect x="-37.5" width="450" fill="#000000" y="-37.499999" height="449.999989" fill-opacity="0.4784"/></g></mask><clipPath id="id10"><path d="M 0.9375 0.71875 L 22.6875 0.71875 L 22.6875 22.46875 L 0.9375 22.46875 Z M 0.9375 0.71875 " clip-rule="nonzero"/></clipPath><clipPath id="id11"><rect x="0" width="23" y="0" height="23"/></clipPath><mask id="id12"><g filter="url(#id1)"><rect x="-37.5" width="450" fill="#000000" y="-37.499999" height="449.999989" fill-opacity="0.8"/></g></mask><clipPath id="id13"><path d="M 0.3125 0.78125 L 22.0625 0.78125 L 22.0625 22.53125 L 0.3125 22.53125 Z M 0.3125 0.78125 " clip-rule="nonzero"/></clipPath><clipPath id="id14"><rect x="0" width="23" y="0" height="23"/></clipPath><clipPath id="id15"><path d="M 279.9375 143.40625 L 301.6875 143.40625 L 301.6875 165.15625 L 279.9375 165.15625 Z M 279.9375 143.40625 " clip-rule="nonzero"/></clipPath></defs><g fill="#ffffff" fill-opacity="1"><g transform="translate(49.499346, 250.686298)"><g><path d="M 16.875 -27.859375 C 17.320312 -27.859375 17.546875 -26.679688 17.546875 -24.328125 C 17.546875 -21.984375 17.320312 -20.8125 16.875 -20.8125 L 9.59375 -20.8125 L 9.59375 -16.28125 L 14.453125 -16.28125 C 14.898438 -16.28125 15.125 -15.25 15.125 -13.1875 C 15.125 -11.132812 14.910156 -10.109375 14.484375 -10.109375 L 9.59375 -10.109375 L 9.59375 -0.515625 C 9.59375 -0.140625 9.09375 0.101562 8.09375 0.21875 C 7.101562 0.332031 6.273438 0.390625 5.609375 0.390625 L 3.734375 0.3125 C 2.441406 0.15625 1.796875 -0.109375 1.796875 -0.484375 L 1.796875 -26.828125 C 1.796875 -27.242188 1.878906 -27.519531 2.046875 -27.65625 C 2.222656 -27.789062 2.484375 -27.859375 2.828125 -27.859375 Z M 16.875 -27.859375 "/></g></g></g><g fill="#ffffff" fill-opacity="1"><g transform="translate(69.471965, 250.686298)"><g><path d="M 20.6875 0.078125 C 18.382812 0.078125 17.140625 -0.289062 16.953125 -1.03125 L 15.640625 -6.171875 L 9.3125 -6.171875 L 8.15625 -1.234375 C 8 -0.410156 6.726562 0 4.34375 0 C 3.0625 0 2.113281 -0.0703125 1.5 -0.21875 C 0.894531 -0.363281 0.59375 -0.476562 0.59375 -0.5625 L 7.640625 -27.5 C 7.640625 -27.707031 9.457031 -27.8125 13.09375 -27.8125 C 16.726562 -27.8125 18.546875 -27.707031 18.546875 -27.5 L 25.4375 -0.515625 C 25.4375 -0.328125 24.820312 -0.179688 23.59375 -0.078125 C 22.375 0.0234375 21.40625 0.078125 20.6875 0.078125 Z M 10.3125 -11.21875 L 14.484375 -11.21875 L 12.6875 -19.453125 L 12.453125 -19.453125 Z M 10.3125 -11.21875 "/></g></g></g><g fill="#ffffff" fill-opacity="1"><g transform="translate(96.72527, 250.686298)"><g><path d="M 13.96875 -0.640625 C 13.96875 -0.109375 12.65625 0.15625 10.03125 0.15625 C 7.40625 0.15625 6.09375 -0.109375 6.09375 -0.640625 L 6.09375 -20.609375 L 1.3125 -20.609375 C 0.863281 -20.609375 0.546875 -21.222656 0.359375 -22.453125 C 0.273438 -23.035156 0.234375 -23.628906 0.234375 -24.234375 C 0.234375 -24.847656 0.273438 -25.445312 0.359375 -26.03125 C 0.546875 -27.25 0.863281 -27.859375 1.3125 -27.859375 L 18.625 -27.859375 C 19.070312 -27.859375 19.390625 -27.25 19.578125 -26.03125 C 19.660156 -25.445312 19.703125 -24.847656 19.703125 -24.234375 C 19.703125 -23.628906 19.660156 -23.035156 19.578125 -22.453125 C 19.390625 -21.222656 19.070312 -20.609375 18.625 -20.609375 L 13.96875 -20.609375 Z M 13.96875 -0.640625 "/></g></g></g><g fill="#ffffff" fill-opacity="1"><g transform="translate(117.891442, 250.686298)"><g><path d="M 13.828125 0.390625 C 10.097656 0.390625 7.054688 -0.828125 4.703125 -3.265625 C 2.359375 -5.703125 1.1875 -9.257812 1.1875 -13.9375 C 1.1875 -18.625 2.375 -22.175781 4.75 -24.59375 C 7.125 -27.007812 10.1875 -28.21875 13.9375 -28.21875 C 17.695312 -28.21875 20.726562 -27.03125 23.03125 -24.65625 C 25.34375 -22.28125 26.5 -18.679688 26.5 -13.859375 C 26.5 -9.046875 25.316406 -5.46875 22.953125 -3.125 C 20.597656 -0.78125 17.554688 0.390625 13.828125 0.390625 Z M 13.84375 -20.578125 C 12.570312 -20.578125 11.503906 -19.992188 10.640625 -18.828125 C 9.785156 -17.660156 9.359375 -16.019531 9.359375 -13.90625 C 9.359375 -11.800781 9.765625 -10.179688 10.578125 -9.046875 C 11.398438 -7.921875 12.484375 -7.359375 13.828125 -7.359375 C 15.171875 -7.359375 16.257812 -7.925781 17.09375 -9.0625 C 17.925781 -10.207031 18.34375 -11.84375 18.34375 -13.96875 C 18.34375 -16.09375 17.910156 -17.722656 17.046875 -18.859375 C 16.191406 -20.003906 15.125 -20.578125 13.84375 -20.578125 Z M 13.84375 -20.578125 "/></g></g></g><g fill="#ffffff" fill-opacity="1"><g transform="translate(146.775939, 250.686298)"><g><path d="M 3.03125 -9.703125 C 3.53125 -9.304688 4.394531 -8.765625 5.625 -8.078125 C 6.863281 -7.390625 8.046875 -7.046875 9.171875 -7.046875 C 10.296875 -7.046875 10.859375 -7.484375 10.859375 -8.359375 C 10.859375 -8.753906 10.695312 -9.101562 10.375 -9.40625 C 10.0625 -9.71875 9.476562 -10.070312 8.625 -10.46875 C 7.78125 -10.863281 7.144531 -11.171875 6.71875 -11.390625 C 6.300781 -11.617188 5.738281 -11.992188 5.03125 -12.515625 C 4.332031 -13.035156 3.796875 -13.570312 3.421875 -14.125 C 2.359375 -15.632812 1.828125 -17.554688 1.828125 -19.890625 C 1.828125 -22.234375 2.695312 -24.207031 4.4375 -25.8125 C 6.175781 -27.414062 8.453125 -28.21875 11.265625 -28.21875 C 13.171875 -28.21875 14.929688 -28.007812 16.546875 -27.59375 C 18.171875 -27.1875 19.007812 -26.648438 19.0625 -25.984375 C 19.0625 -25.910156 19.0625 -25.832031 19.0625 -25.75 C 19.0625 -24.820312 18.769531 -23.644531 18.1875 -22.21875 C 17.601562 -20.800781 17.191406 -20.015625 16.953125 -19.859375 C 15.253906 -20.734375 13.734375 -21.171875 12.390625 -21.171875 C 11.054688 -21.171875 10.390625 -20.691406 10.390625 -19.734375 C 10.390625 -19.148438 10.878906 -18.632812 11.859375 -18.1875 C 12.066406 -18.082031 12.367188 -17.9375 12.765625 -17.75 C 13.171875 -17.5625 13.628906 -17.34375 14.140625 -17.09375 C 14.660156 -16.84375 15.21875 -16.523438 15.8125 -16.140625 C 16.414062 -15.753906 17.0625 -15.242188 17.75 -14.609375 C 19.15625 -13.273438 19.859375 -11.523438 19.859375 -9.359375 C 19.859375 -6.515625 19.070312 -4.191406 17.5 -2.390625 C 15.9375 -0.585938 13.523438 0.335938 10.265625 0.390625 C 8.671875 0.390625 7.226562 0.257812 5.9375 0 C 4.65625 -0.257812 3.535156 -0.773438 2.578125 -1.546875 C 1.628906 -2.316406 1.15625 -3.242188 1.15625 -4.328125 C 1.15625 -5.421875 1.351562 -6.503906 1.75 -7.578125 C 2.144531 -8.648438 2.570312 -9.359375 3.03125 -9.703125 Z M 3.03125 -9.703125 "/></g></g></g><g fill="#ffffff" fill-opacity="1"><g transform="translate(169.095876, 250.686298)"><g><path d="M 13.890625 -19.453125 L 13.921875 -19.859375 C 13.921875 -20.523438 13.703125 -21.054688 13.265625 -21.453125 C 12.828125 -21.847656 12.289062 -22.046875 11.65625 -22.046875 C 11.019531 -22.046875 10.488281 -21.832031 10.0625 -21.40625 C 9.644531 -20.988281 9.4375 -20.40625 9.4375 -19.65625 C 9.4375 -17.644531 10.851562 -16.640625 13.6875 -16.640625 C 14.320312 -16.640625 15.039062 -16.691406 15.84375 -16.796875 C 21.0625 -17.460938 23.703125 -17.796875 23.765625 -17.796875 C 24.503906 -17.796875 24.875 -17.035156 24.875 -15.515625 C 24.875 -14.296875 24.617188 -13.09375 24.109375 -11.90625 L 20.0625 -11.421875 C 20.75 -9.753906 21.09375 -8.242188 21.09375 -6.890625 C 21.09375 -4.785156 20.289062 -3.046875 18.6875 -1.671875 C 17.082031 -0.296875 14.742188 0.390625 11.671875 0.390625 C 8.609375 0.390625 6.1875 -0.351562 4.40625 -1.84375 C 2.632812 -3.34375 1.75 -5.265625 1.75 -7.609375 C 1.75 -9.960938 2.878906 -11.976562 5.140625 -13.65625 C 3.460938 -15.507812 2.625 -17.65625 2.625 -20.09375 C 2.625 -22.539062 3.472656 -24.507812 5.171875 -26 C 6.867188 -27.5 9.070312 -28.25 11.78125 -28.25 C 14.488281 -28.25 16.628906 -27.585938 18.203125 -26.265625 C 19.785156 -24.941406 20.578125 -23.148438 20.578125 -20.890625 C 20.578125 -20.441406 20.144531 -20.003906 19.28125 -19.578125 C 18.414062 -19.148438 17.382812 -18.9375 16.1875 -18.9375 C 15 -18.9375 14.234375 -19.109375 13.890625 -19.453125 Z M 9.515625 -11.34375 C 9.222656 -10.570312 9.078125 -9.882812 9.078125 -9.28125 C 9.078125 -8.6875 9.171875 -8.164062 9.359375 -7.71875 C 9.773438 -6.6875 10.625 -6.171875 11.90625 -6.171875 C 12.800781 -6.171875 13.453125 -6.492188 13.859375 -7.140625 C 14.273438 -7.796875 14.484375 -8.613281 14.484375 -9.59375 C 14.484375 -10.039062 14.46875 -10.375 14.4375 -10.59375 C 14.414062 -10.820312 14.40625 -10.96875 14.40625 -11.03125 C 13.5 -10.863281 12.609375 -10.78125 11.734375 -10.78125 C 10.859375 -10.78125 10.117188 -10.96875 9.515625 -11.34375 Z M 9.515625 -11.34375 "/></g></g></g><g fill="#ffffff" fill-opacity="1"><g transform="translate(196.826602, 250.686298)"><g><path d="M 1.984375 -1.828125 L 1.984375 -25.703125 C 1.984375 -26.367188 2.148438 -26.894531 2.484375 -27.28125 C 2.816406 -27.664062 3.25 -27.859375 3.78125 -27.859375 L 10.421875 -27.859375 C 14.640625 -27.859375 17.84375 -26.796875 20.03125 -24.671875 C 22.226562 -22.546875 23.328125 -19.203125 23.328125 -14.640625 C 23.328125 -4.878906 19.160156 0 10.828125 0 L 4.015625 0 C 2.660156 0 1.984375 -0.609375 1.984375 -1.828125 Z M 9.625 -20.296875 L 9.625 -8.390625 C 9.625 -7.835938 9.664062 -7.488281 9.75 -7.34375 C 9.832031 -7.195312 10.070312 -7.125 10.46875 -7.125 C 11.925781 -7.125 13.03125 -7.664062 13.78125 -8.75 C 14.539062 -9.84375 14.921875 -11.65625 14.921875 -14.1875 C 14.921875 -16.71875 14.53125 -18.367188 13.75 -19.140625 C 12.96875 -19.910156 11.726562 -20.296875 10.03125 -20.296875 Z M 9.625 -20.296875 "/></g></g></g><g fill="#ffffff" fill-opacity="1"><g transform="translate(222.52828, 250.686298)"><g><path d="M 20.6875 0.078125 C 18.382812 0.078125 17.140625 -0.289062 16.953125 -1.03125 L 15.640625 -6.171875 L 9.3125 -6.171875 L 8.15625 -1.234375 C 8 -0.410156 6.726562 0 4.34375 0 C 3.0625 0 2.113281 -0.0703125 1.5 -0.21875 C 0.894531 -0.363281 0.59375 -0.476562 0.59375 -0.5625 L 7.640625 -27.5 C 7.640625 -27.707031 9.457031 -27.8125 13.09375 -27.8125 C 16.726562 -27.8125 18.546875 -27.707031 18.546875 -27.5 L 25.4375 -0.515625 C 25.4375 -0.328125 24.820312 -0.179688 23.59375 -0.078125 C 22.375 0.0234375 21.40625 0.078125 20.6875 0.078125 Z M 10.3125 -11.21875 L 14.484375 -11.21875 L 12.6875 -19.453125 L 12.453125 -19.453125 Z M 10.3125 -11.21875 "/></g></g></g><g fill="#ffffff" fill-opacity="1"><g transform="translate(249.781582, 250.686298)"><g><path d="M 1.984375 -1.828125 L 1.984375 -25.703125 C 1.984375 -26.367188 2.148438 -26.894531 2.484375 -27.28125 C 2.816406 -27.664062 3.25 -27.859375 3.78125 -27.859375 L 10.421875 -27.859375 C 14.640625 -27.859375 17.84375 -26.796875 20.03125 -24.671875 C 22.226562 -22.546875 23.328125 -19.203125 23.328125 -14.640625 C 23.328125 -4.878906 19.160156 0 10.828125 0 L 4.015625 0 C 2.660156 0 1.984375 -0.609375 1.984375 -1.828125 Z M 9.625 -20.296875 L 9.625 -8.390625 C 9.625 -7.835938 9.664062 -7.488281 9.75 -7.34375 C 9.832031 -7.195312 10.070312 -7.125 10.46875 -7.125 C 11.925781 -7.125 13.03125 -7.664062 13.78125 -8.75 C 14.539062 -9.84375 14.921875 -11.65625 14.921875 -14.1875 C 14.921875 -16.71875 14.53125 -18.367188 13.75 -19.140625 C 12.96875 -19.910156 11.726562 -20.296875 10.03125 -20.296875 Z M 9.625 -20.296875 "/></g></g></g><g fill="#ffffff" fill-opacity="1"><g transform="translate(275.483271, 250.686298)"><g><path d="M 13.828125 0.390625 C 10.097656 0.390625 7.054688 -0.828125 4.703125 -3.265625 C 2.359375 -5.703125 1.1875 -9.257812 1.1875 -13.9375 C 1.1875 -18.625 2.375 -22.175781 4.75 -24.59375 C 7.125 -27.007812 10.1875 -28.21875 13.9375 -28.21875 C 17.695312 -28.21875 20.726562 -27.03125 23.03125 -24.65625 C 25.34375 -22.28125 26.5 -18.679688 26.5 -13.859375 C 26.5 -9.046875 25.316406 -5.46875 22.953125 -3.125 C 20.597656 -0.78125 17.554688 0.390625 13.828125 0.390625 Z M 13.84375 -20.578125 C 12.570312 -20.578125 11.503906 -19.992188 10.640625 -18.828125 C 9.785156 -17.660156 9.359375 -16.019531 9.359375 -13.90625 C 9.359375 -11.800781 9.765625 -10.179688 10.578125 -9.046875 C 11.398438 -7.921875 12.484375 -7.359375 13.828125 -7.359375 C 15.171875 -7.359375 16.257812 -7.925781 17.09375 -9.0625 C 17.925781 -10.207031 18.34375 -11.84375 18.34375 -13.96875 C 18.34375 -16.09375 17.910156 -17.722656 17.046875 -18.859375 C 16.191406 -20.003906 15.125 -20.578125 13.84375 -20.578125 Z M 13.84375 -20.578125 "/></g></g></g><g fill="#ffffff" fill-opacity="1"><g transform="translate(304.367768, 250.686298)"><g><path d="M 3.03125 -9.703125 C 3.53125 -9.304688 4.394531 -8.765625 5.625 -8.078125 C 6.863281 -7.390625 8.046875 -7.046875 9.171875 -7.046875 C 10.296875 -7.046875 10.859375 -7.484375 10.859375 -8.359375 C 10.859375 -8.753906 10.695312 -9.101562 10.375 -9.40625 C 10.0625 -9.71875 9.476562 -10.070312 8.625 -10.46875 C 7.78125 -10.863281 7.144531 -11.171875 6.71875 -11.390625 C 6.300781 -11.617188 5.738281 -11.992188 5.03125 -12.515625 C 4.332031 -13.035156 3.796875 -13.570312 3.421875 -14.125 C 2.359375 -15.632812 1.828125 -17.554688 1.828125 -19.890625 C 1.828125 -22.234375 2.695312 -24.207031 4.4375 -25.8125 C 6.175781 -27.414062 8.453125 -28.21875 11.265625 -28.21875 C 13.171875 -28.21875 14.929688 -28.007812 16.546875 -27.59375 C 18.171875 -27.1875 19.007812 -26.648438 19.0625 -25.984375 C 19.0625 -25.910156 19.0625 -25.832031 19.0625 -25.75 C 19.0625 -24.820312 18.769531 -23.644531 18.1875 -22.21875 C 17.601562 -20.800781 17.191406 -20.015625 16.953125 -19.859375 C 15.253906 -20.734375 13.734375 -21.171875 12.390625 -21.171875 C 11.054688 -21.171875 10.390625 -20.691406 10.390625 -19.734375 C 10.390625 -19.148438 10.878906 -18.632812 11.859375 -18.1875 C 12.066406 -18.082031 12.367188 -17.9375 12.765625 -17.75 C 13.171875 -17.5625 13.628906 -17.34375 14.140625 -17.09375 C 14.660156 -16.84375 15.21875 -16.523438 15.8125 -16.140625 C 16.414062 -15.753906 17.0625 -15.242188 17.75 -14.609375 C 19.15625 -13.273438 19.859375 -11.523438 19.859375 -9.359375 C 19.859375 -6.515625 19.070312 -4.191406 17.5 -2.390625 C 15.9375 -0.585938 13.523438 0.335938 10.265625 0.390625 C 8.671875 0.390625 7.226562 0.257812 5.9375 0 C 4.65625 -0.257812 3.535156 -0.773438 2.578125 -1.546875 C 1.628906 -2.316406 1.15625 -3.242188 1.15625 -4.328125 C 1.15625 -5.421875 1.351562 -6.503906 1.75 -7.578125 C 2.144531 -8.648438 2.570312 -9.359375 3.03125 -9.703125 Z M 3.03125 -9.703125 "/></g></g></g><g fill="#ffd43d" fill-opacity="1"><g transform="translate(187.938727, 288.442013)"><g/></g></g><path fill="#ffd43d" d="M 188.625 109.285156 C 174.054688 109.285156 162.238281 121.097656 162.238281 135.671875 C 162.238281 145.253906 170.601562 152.855469 174.988281 160.636719 C 175.816406 162.105469 175.777344 167.394531 175.777344 167.394531 L 201.347656 167.394531 C 201.347656 167.394531 201.433594 162.105469 202.265625 160.636719 C 206.648438 152.855469 215.011719 145.253906 215.011719 135.671875 C 215.011719 121.097656 203.195312 109.285156 188.625 109.285156 Z M 188.625 113.105469 C 201.070312 113.105469 211.191406 123.226562 211.191406 135.671875 C 211.191406 141.191406 207.589844 146.199219 203.773438 151.5 C 202.085938 153.847656 200.335938 156.277344 198.9375 158.757812 C 198.507812 159.515625 198.039062 160.6875 197.75 163.578125 L 179.449219 163.578125 C 179.265625 161.289062 178.914062 159.828125 178.3125 158.761719 C 176.914062 156.277344 175.167969 153.847656 173.476562 151.5 C 169.660156 146.195312 166.054688 141.191406 166.054688 135.671875 C 166.054688 123.226562 176.179688 113.105469 188.625 113.105469 " fill-opacity="1" fill-rule="nonzero"/><path fill="#ffd43d" d="M 204.15625 169.390625 C 204.15625 170.496094 203.257812 171.390625 202.15625 171.390625 L 175.09375 171.390625 C 173.988281 171.390625 173.09375 170.496094 173.09375 169.390625 C 173.09375 168.289062 173.988281 167.394531 175.09375 167.394531 L 202.15625 167.394531 C 203.257812 167.394531 204.15625 168.289062 204.15625 169.390625 " fill-opacity="1" fill-rule="nonzero"/><path fill="#ffd43d" d="M 204.15625 173.390625 C 204.15625 174.496094 203.257812 175.390625 202.15625 175.390625 L 175.09375 175.390625 C 173.988281 175.390625 173.09375 174.496094 173.09375 173.390625 C 173.09375 172.285156 173.988281 171.390625 175.09375 171.390625 L 202.15625 171.390625 C 203.257812 171.390625 204.15625 172.285156 204.15625 173.390625 " fill-opacity="1" fill-rule="nonzero"/><path fill="#ffd43d" d="M 204.15625 177.390625 C 204.15625 178.492188 203.257812 179.386719 202.15625 179.386719 L 175.09375 179.386719 C 173.988281 179.386719 173.09375 178.492188 173.09375 177.390625 C 173.09375 176.285156 173.988281 175.390625 175.09375 175.390625 L 202.15625 175.390625 C 203.257812 175.390625 204.15625 176.285156 204.15625 177.390625 " fill-opacity="1" fill-rule="nonzero"/><path fill="#ffd43d" d="M 177.199219 179.386719 C 177.238281 182.921875 182.335938 185.773438 188.625 185.773438 C 194.910156 185.773438 200.011719 182.921875 200.050781 179.386719 L 177.199219 179.386719 " fill-opacity="1" fill-rule="nonzero"/><g mask="url(#id2)"><g transform="matrix(1, 0, 0, 1, 129, 147)"><g clip-path="url(#id4)"><g clip-path="url(#id3)"><path fill="#ffd43d" d="M 11.4375 22.09375 C 9.8125 22.09375 8.164062 20.996094 8.164062 18.894531 L 8.164062 14.488281 L 3.757812 14.488281 C 1.660156 14.488281 0.5625 12.84375 0.5625 11.21875 C 0.5625 9.589844 1.660156 7.945312 3.757812 7.945312 L 8.164062 7.945312 L 8.164062 3.539062 C 8.164062 1.441406 9.8125 0.34375 11.4375 0.34375 C 13.0625 0.34375 14.710938 1.441406 14.710938 3.539062 L 14.710938 7.945312 L 19.117188 7.945312 C 21.214844 7.945312 22.3125 9.589844 22.3125 11.21875 C 22.3125 12.84375 21.214844 14.488281 19.117188 14.488281 L 14.710938 14.488281 L 14.710938 18.894531 C 14.710938 20.996094 13.0625 22.09375 11.4375 22.09375 Z M 3.757812 9.804688 C 2.460938 9.804688 2.421875 11.074219 2.421875 11.21875 C 2.421875 11.363281 2.460938 12.628906 3.757812 12.628906 L 10.027344 12.628906 L 10.027344 18.894531 C 10.027344 20.195312 11.292969 20.230469 11.4375 20.230469 C 11.582031 20.230469 12.851562 20.195312 12.851562 18.894531 L 12.851562 12.628906 L 19.117188 12.628906 C 20.414062 12.628906 20.453125 11.363281 20.453125 11.21875 C 20.453125 11.074219 20.414062 9.804688 19.117188 9.804688 L 12.851562 9.804688 L 12.851562 3.539062 C 12.851562 2.242188 11.582031 2.203125 11.4375 2.203125 C 11.292969 2.203125 10.027344 2.242188 10.027344 3.539062 L 10.027344 9.804688 Z M 3.757812 9.804688 " fill-opacity="1" fill-rule="nonzero"/></g></g></g></g><g mask="url(#id5)"><g transform="matrix(1, 0, 0, 1, 99, 118)"><g clip-path="url(#id7)"><g clip-path="url(#id6)"><path fill="#ffd43d" d="M 11.8125 21.84375 C 10.1875 21.84375 8.539062 20.746094 8.539062 18.644531 L 8.539062 14.238281 L 4.132812 14.238281 C 2.035156 14.238281 0.9375 12.59375 0.9375 10.96875 C 0.9375 9.339844 2.035156 7.695312 4.132812 7.695312 L 8.539062 7.695312 L 8.539062 3.289062 C 8.539062 1.191406 10.1875 0.09375 11.8125 0.09375 C 13.4375 0.09375 15.085938 1.191406 15.085938 3.289062 L 15.085938 7.695312 L 19.492188 7.695312 C 21.589844 7.695312 22.6875 9.339844 22.6875 10.96875 C 22.6875 12.59375 21.589844 14.238281 19.492188 14.238281 L 15.085938 14.238281 L 15.085938 18.644531 C 15.085938 20.746094 13.4375 21.84375 11.8125 21.84375 Z M 4.132812 9.554688 C 2.835938 9.554688 2.796875 10.824219 2.796875 10.96875 C 2.796875 11.113281 2.835938 12.378906 4.132812 12.378906 L 10.402344 12.378906 L 10.402344 18.644531 C 10.402344 19.945312 11.667969 19.980469 11.8125 19.980469 C 11.957031 19.980469 13.226562 19.945312 13.226562 18.644531 L 13.226562 12.378906 L 19.492188 12.378906 C 20.789062 12.378906 20.828125 11.113281 20.828125 10.96875 C 20.828125 10.824219 20.789062 9.554688 19.492188 9.554688 L 13.226562 9.554688 L 13.226562 3.289062 C 13.226562 1.992188 11.957031 1.953125 11.8125 1.953125 C 11.667969 1.953125 10.402344 1.992188 10.402344 3.289062 L 10.402344 9.554688 Z M 4.132812 9.554688 " fill-opacity="1" fill-rule="nonzero"/></g></g></g></g><g clip-path="url(#id8)"><path fill="#ffd43d" d="M 84.1875 175.84375 C 82.5625 175.84375 80.914062 174.746094 80.914062 172.644531 L 80.914062 168.238281 L 76.507812 168.238281 C 74.410156 168.238281 73.3125 166.59375 73.3125 164.96875 C 73.3125 163.339844 74.410156 161.695312 76.507812 161.695312 L 80.914062 161.695312 L 80.914062 157.289062 C 80.914062 155.191406 82.5625 154.09375 84.1875 154.09375 C 85.8125 154.09375 87.460938 155.191406 87.460938 157.289062 L 87.460938 161.695312 L 91.867188 161.695312 C 93.964844 161.695312 95.0625 163.339844 95.0625 164.96875 C 95.0625 166.59375 93.964844 168.238281 91.867188 168.238281 L 87.460938 168.238281 L 87.460938 172.644531 C 87.460938 174.746094 85.8125 175.84375 84.1875 175.84375 Z M 76.507812 163.554688 C 75.210938 163.554688 75.171875 164.824219 75.171875 164.96875 C 75.171875 165.113281 75.210938 166.378906 76.507812 166.378906 L 82.777344 166.378906 L 82.777344 172.644531 C 82.777344 173.945312 84.042969 173.980469 84.1875 173.980469 C 84.332031 173.980469 85.601562 173.945312 85.601562 172.644531 L 85.601562 166.378906 L 91.867188 166.378906 C 93.164062 166.378906 93.203125 165.113281 93.203125 164.96875 C 93.203125 164.824219 93.164062 163.554688 91.867188 163.554688 L 85.601562 163.554688 L 85.601562 157.289062 C 85.601562 155.992188 84.332031 155.953125 84.1875 155.953125 C 84.042969 155.953125 82.777344 155.992188 82.777344 157.289062 L 82.777344 163.554688 Z M 76.507812 163.554688 " fill-opacity="1" fill-rule="nonzero"/></g><g mask="url(#id9)"><g transform="matrix(1, 0, 0, 1, 225, 132)"><g clip-path="url(#id11)"><g clip-path="url(#id10)"><path fill="#ffd43d" d="M 11.8125 22.46875 C 10.1875 22.46875 8.539062 21.371094 8.539062 19.269531 L 8.539062 14.863281 L 4.132812 14.863281 C 2.035156 14.863281 0.9375 13.21875 0.9375 11.59375 C 0.9375 9.964844 2.035156 8.320312 4.132812 8.320312 L 8.539062 8.320312 L 8.539062 3.914062 C 8.539062 1.816406 10.1875 0.71875 11.8125 0.71875 C 13.4375 0.71875 15.085938 1.816406 15.085938 3.914062 L 15.085938 8.320312 L 19.492188 8.320312 C 21.589844 8.320312 22.6875 9.964844 22.6875 11.59375 C 22.6875 13.21875 21.589844 14.863281 19.492188 14.863281 L 15.085938 14.863281 L 15.085938 19.269531 C 15.085938 21.371094 13.4375 22.46875 11.8125 22.46875 Z M 4.132812 10.179688 C 2.835938 10.179688 2.796875 11.449219 2.796875 11.59375 C 2.796875 11.738281 2.835938 13.003906 4.132812 13.003906 L 10.402344 13.003906 L 10.402344 19.269531 C 10.402344 20.570312 11.667969 20.605469 11.8125 20.605469 C 11.957031 20.605469 13.226562 20.570312 13.226562 19.269531 L 13.226562 13.003906 L 19.492188 13.003906 C 20.789062 13.003906 20.828125 11.738281 20.828125 11.59375 C 20.828125 11.449219 20.789062 10.179688 19.492188 10.179688 L 13.226562 10.179688 L 13.226562 3.914062 C 13.226562 2.617188 11.957031 2.578125 11.8125 2.578125 C 11.667969 2.578125 10.402344 2.617188 10.402344 3.914062 L 10.402344 10.179688 Z M 4.132812 10.179688 " fill-opacity="1" fill-rule="nonzero"/></g></g></g></g><g mask="url(#id12)"><g transform="matrix(1, 0, 0, 1, 247, 164)"><g clip-path="url(#id14)"><g clip-path="url(#id13)"><path fill="#ffd43d" d="M 11.1875 22.53125 C 9.5625 22.53125 7.914062 21.433594 7.914062 19.332031 L 7.914062 14.925781 L 3.507812 14.925781 C 1.410156 14.925781 0.3125 13.28125 0.3125 11.65625 C 0.3125 10.027344 1.410156 8.382812 3.507812 8.382812 L 7.914062 8.382812 L 7.914062 3.976562 C 7.914062 1.878906 9.5625 0.78125 11.1875 0.78125 C 12.8125 0.78125 14.460938 1.878906 14.460938 3.976562 L 14.460938 8.382812 L 18.867188 8.382812 C 20.964844 8.382812 22.0625 10.027344 22.0625 11.65625 C 22.0625 13.28125 20.964844 14.925781 18.867188 14.925781 L 14.460938 14.925781 L 14.460938 19.332031 C 14.460938 21.433594 12.8125 22.53125 11.1875 22.53125 Z M 3.507812 10.242188 C 2.210938 10.242188 2.171875 11.511719 2.171875 11.65625 C 2.171875 11.800781 2.210938 13.066406 3.507812 13.066406 L 9.777344 13.066406 L 9.777344 19.332031 C 9.777344 20.632812 11.042969 20.667969 11.1875 20.667969 C 11.332031 20.667969 12.601562 20.632812 12.601562 19.332031 L 12.601562 13.066406 L 18.867188 13.066406 C 20.164062 13.066406 20.203125 11.800781 20.203125 11.65625 C 20.203125 11.511719 20.164062 10.242188 18.867188 10.242188 L 12.601562 10.242188 L 12.601562 3.976562 C 12.601562 2.679688 11.332031 2.640625 11.1875 2.640625 C 11.042969 2.640625 9.777344 2.679688 9.777344 3.976562 L 9.777344 10.242188 Z M 3.507812 10.242188 " fill-opacity="1" fill-rule="nonzero"/></g></g></g></g><g clip-path="url(#id15)"><path fill="#ffd43d" d="M 290.8125 165.15625 C 289.1875 165.15625 287.539062 164.058594 287.539062 161.957031 L 287.539062 157.550781 L 283.132812 157.550781 C 281.035156 157.550781 279.9375 155.90625 279.9375 154.28125 C 279.9375 152.652344 281.035156 151.007812 283.132812 151.007812 L 287.539062 151.007812 L 287.539062 146.601562 C 287.539062 144.503906 289.1875 143.40625 290.8125 143.40625 C 292.4375 143.40625 294.085938 144.503906 294.085938 146.601562 L 294.085938 151.007812 L 298.492188 151.007812 C 300.589844 151.007812 301.6875 152.652344 301.6875 154.28125 C 301.6875 155.90625 300.589844 157.550781 298.492188 157.550781 L 294.085938 157.550781 L 294.085938 161.957031 C 294.085938 164.058594 292.4375 165.15625 290.8125 165.15625 Z M 283.132812 152.867188 C 281.835938 152.867188 281.796875 154.136719 281.796875 154.28125 C 281.796875 154.425781 281.835938 155.691406 283.132812 155.691406 L 289.402344 155.691406 L 289.402344 161.957031 C 289.402344 163.257812 290.667969 163.292969 290.8125 163.292969 C 290.957031 163.292969 292.226562 163.257812 292.226562 161.957031 L 292.226562 155.691406 L 298.492188 155.691406 C 299.789062 155.691406 299.828125 154.425781 299.828125 154.28125 C 299.828125 154.136719 299.789062 152.867188 298.492188 152.867188 L 292.226562 152.867188 L 292.226562 146.601562 C 292.226562 145.304688 290.957031 145.265625 290.8125 145.265625 C 290.667969 145.265625 289.402344 145.304688 289.402344 146.601562 L 289.402344 152.867188 Z M 283.132812 152.867188 " fill-opacity="1" fill-rule="nonzero"/></g></svg>